<svg width="84" height="33" viewBox="0 0 84 33" fill="none" xmlns="http://www.w3.org/2000/svg">
<path d="M1.848 24V7.08H9.192C11.048 7.08 12.48 7.544 13.488 8.472C14.496 9.4 15 10.696 15 12.36C15 14.024 14.496 15.328 13.488 16.272C12.48 17.2 11.048 17.664 9.192 17.664H4.92V24H1.848ZM4.92 15.24H8.712C10.92 15.24 12.024 14.28 12.024 12.36C12.024 10.456 10.92 9.504 8.712 9.504H4.92V15.24ZM17.5043 24V7.08H20.3603V18.984L29.4563 7.08H31.7603V24H28.9043V12.048L19.7843 24H17.5043ZM39.5374 24V9.648H33.7294V7.08H48.4174V9.648H42.6094V24H39.5374Z" fill="black"/>
<path d="M48 16.0769C48 16.0769 48.1215 23 51.1616 23C57.8799 23 51.1616 8 57.8799 8C64.9935 8 58.3708 23 65 23C71.6292 23 65 8 72.107 8C79.214 8 72.2594 23 78.8254 23C82.3821 23 81.9869 16.0769 81.9869 16.0769" stroke="black" stroke-width="3"/>
</svg>
